<?xml version="1.0" encoding="UTF-8" standalone="no"?>
<svg
   xmlns="http://www.w3.org/2000/svg"
   version="1.1"
   width="36"
   height="36">
  <path style="fill:#ffffff;" d="M 3.4551898,2.0000386 A 1.4552891,1.4552891 0 0 0 2.426195,2.426156 a 1.4552891,1.4552891 0 0 0 0,2.0579897 L 15.94201,17.999961 2.426195,31.515776 a 1.4552891,1.4552891 0 0 0 0,2.057991 1.4552891,1.4552891 0 0 0 2.0579896,0 L 18,20.057951 31.515815,33.573767 a 1.4552891,1.4552891 0 0 0 2.05799,0 1.4552891,1.4552891 0 0 0 0,-2.057991 L 20.05799,17.999961 33.573805,4.4841457 a 1.4552891,1.4552891 0 0 0 0,-2.0579897 A 1.4552891,1.4552891 0 0 0 32.54481,2.0000386 1.4552891,1.4552891 0 0 0 31.515815,2.426156 L 18,15.941972 4.4841846,2.426156 A 1.4552891,1.4552891 0 0 0 3.4551898,2.0000386 Z" />
</svg>
