<?xml version="1.0" encoding="UTF-8" standalone="no"?>
<svg
   xmlns="http://www.w3.org/2000/svg"
   version="1.1"
   width="20"
   height="20">
  <path
     d="M 10,0.10000018 C 4.537483,0.10000018 0.1000002,4.537483 0.10000019,10 0.1000002,15.462518 4.537483,19.9 10,19.9 c 5.462518,0 9.9,-4.437482 9.9,-9.9 0,-5.462517 -4.437482,-9.8999998 -9.9,-9.89999982 z m 0.287098,1.90422162 c 0.111373,-0.1113778 1.888158,1.9096505 2.210851,2.5155257 0.120605,0.2264414 0.3187,0.088412 -3.9100027,2.7049714 -2.3171031,1.4337414 -2.2326017,1.3114241 -1.5604852,2.2948313 0.1586656,0.2321463 0.3579257,0.5311018 0.4433418,0.6640368 0.085411,0.132935 0.3242845,0.487886 0.5312291,0.789031 0.2069405,0.301145 0.5829439,0.849297 0.8359045,1.218702 0.2529589,0.369405 0.5653418,0.787106 0.693332,0.925745 l 0.2324127,0.251943 0.2988168,-0.173822 c 0.163747,-0.09517 0.613552,-0.385373 0.99996,-0.644506 0.386402,-0.259125 0.797271,-0.527352 0.914026,-0.595679 0.116754,-0.06833 0.465835,-0.307204 0.775361,-0.529276 0.309519,-0.222077 0.65191,-0.455766 0.761688,-0.521464 0.946843,-0.566643 0.988502,-0.654046 0.591774,-1.2245609 -0.810009,-1.1648284 -0.898092,-1.222384 -1.429631,-0.902308 -0.859235,0.5174066 -1.125402,0.9419244 -1.097613,1.7460259 0.02825,0.817744 -0.09585,0.758426 -0.964806,-0.462873 C 9.7168902,8.8007165 9.7176661,8.799763 10.064451,8.5488854 c 0.317884,-0.2299687 1.267835,-0.8495758 1.302683,-0.8495758 0.01553,0 0.144851,-0.080005 0.287098,-0.1777274 0.351589,-0.2415325 0.913045,-0.5938035 1.081988,-0.6855198 0.757158,-0.4110488 0.672353,-0.5342501 1.058552,-0.3827974 0.223083,0.098692 0.507792,0.4492011 0.507792,0.4492011 0.678936,0.7477119 1.074776,1.74354 2.046795,2.6483328 0.41812,0.3654696 0.767298,0.3005277 1.306589,0.1933518 0.915953,-0.1725527 0.867027,0.1353291 -2.861215,2.6776293 -4.152274,2.831446 -4.62977,3.36158 -4.306471,4.783014 0.05356,0.235459 0.08897,0.514941 0.07812,0.623022 0.02327,0.426397 -0.263141,-0.05696 -0.396469,-0.197258 C 9.7358772,17.173805 9.5183227,16.888316 8.4570921,15.402131 7.6843834,14.319995 7.5075735,14.069334 6.6934899,12.886605 4.4307505,9.5992269 4.0034732,9.2755902 2.3596766,9.6191556 1.7336483,9.7500025 1.7046431,9.7121 2.1643718,9.3574473 2.4530652,9.1347359 3.5110465,8.4003889 3.8342278,8.1973367 5.8490095,6.9314937 8.3057062,5.3354339 8.7188006,5.025587 8.87612,4.9075849 9.1778101,4.6886393 9.386743,4.5392781 10.388923,3.8228534 10.606087,3.3960792 10.400375,2.5627936 10.32719,2.2663306 10.276248,2.0150614 10.287098,2.0042218 Z" />
</svg>
